<svg version="1" xmlns="http://www.w3.org/2000/svg" width="71" height="87"><g fill="#363636"><path d="M53 1l-1-1H9L8 1v4h45V1zM54 82h-9V71h-7v3H19l-3-2H4c-2 0-4 1-4 3v3c0 2 2 4 4 4h12l3-3h19v3H28l-1 1v3l1 1h26l1-1v-3l-1-1zM61 12c-1-3-4-5-7-5H7c-4 0-7 3-7 7v47c0 4 3 7 7 7h47c4 0 7-3 7-7V51a23 23 0 0 0 0-39zM12 62a6 6 0 1 1 0-12 6 6 0 0 1 0 12zm6-32l-1 1H8l-2-1V15l2-1h9l1 1v15zm30 22a20 20 0 1 1 0-40 20 20 0 0 1 0 40z"/><ellipse cx="48" cy="32" rx="12" ry="12"/><circle cx="32" cy="32" r="1"/><circle cx="64" cy="32" r="1"/><circle cx="39" cy="18" r="1"/><ellipse cx="56" cy="45" rx="1" ry="1"/><circle cx="56" cy="18" r="1"/><circle cx="40" cy="46" r="1"/></g></svg>